<mxfile host="Electron" modified="2024-03-21T14:01:35.522Z" agent="Mozilla/5.0 (Windows NT 10.0; Win64; x64) AppleWebKit/537.36 (KHTML, like Gecko) draw.io/21.6.8 Chrome/114.0.5735.289 Electron/25.5.0 Safari/537.36" etag="GZJhDmAb4bCVGE2IPXnf" version="21.6.8" type="device">
  <diagram name="Page-1" id="rSXXlckQEFrKVIdML-Kn">
    <mxGraphModel dx="875" dy="524" grid="1" gridSize="10" guides="1" tooltips="1" connect="1" arrows="1" fold="1" page="1" pageScale="1" pageWidth="850" pageHeight="1100" math="0" shadow="1">
      <root>
        <mxCell id="0" />
        <mxCell id="1" parent="0" />
        <mxCell id="wqVS2Ac2yvy7m2jMSRTk-20" value="" style="rounded=0;whiteSpace=wrap;html=1;dashed=1;dashPattern=8 8;" vertex="1" parent="1">
          <mxGeometry x="130" y="250" width="380" height="330" as="geometry" />
        </mxCell>
        <mxCell id="wqVS2Ac2yvy7m2jMSRTk-12" style="edgeStyle=orthogonalEdgeStyle;rounded=0;orthogonalLoop=1;jettySize=auto;html=1;entryX=0.5;entryY=0;entryDx=0;entryDy=0;" edge="1" parent="1" source="wqVS2Ac2yvy7m2jMSRTk-2" target="wqVS2Ac2yvy7m2jMSRTk-5">
          <mxGeometry relative="1" as="geometry" />
        </mxCell>
        <mxCell id="wqVS2Ac2yvy7m2jMSRTk-14" style="edgeStyle=orthogonalEdgeStyle;rounded=0;orthogonalLoop=1;jettySize=auto;html=1;entryX=0.67;entryY=0.989;entryDx=0;entryDy=0;entryPerimeter=0;" edge="1" parent="1" source="wqVS2Ac2yvy7m2jMSRTk-2" target="wqVS2Ac2yvy7m2jMSRTk-3">
          <mxGeometry relative="1" as="geometry">
            <mxPoint x="440" y="200" as="targetPoint" />
            <Array as="points">
              <mxPoint x="440" y="240" />
              <mxPoint x="440" y="240" />
            </Array>
          </mxGeometry>
        </mxCell>
        <mxCell id="wqVS2Ac2yvy7m2jMSRTk-2" value="STM32F411" style="rounded=1;whiteSpace=wrap;html=1;" vertex="1" parent="1">
          <mxGeometry x="360" y="280" width="120" height="60" as="geometry" />
        </mxCell>
        <mxCell id="wqVS2Ac2yvy7m2jMSRTk-15" style="edgeStyle=orthogonalEdgeStyle;rounded=0;orthogonalLoop=1;jettySize=auto;html=1;entryX=0.354;entryY=-0.019;entryDx=0;entryDy=0;entryPerimeter=0;" edge="1" parent="1" source="wqVS2Ac2yvy7m2jMSRTk-3" target="wqVS2Ac2yvy7m2jMSRTk-2">
          <mxGeometry relative="1" as="geometry">
            <mxPoint x="400" y="280" as="targetPoint" />
            <Array as="points">
              <mxPoint x="402" y="245" />
              <mxPoint x="402" y="245" />
            </Array>
          </mxGeometry>
        </mxCell>
        <mxCell id="wqVS2Ac2yvy7m2jMSRTk-19" style="edgeStyle=orthogonalEdgeStyle;rounded=0;orthogonalLoop=1;jettySize=auto;html=1;entryX=1;entryY=0.75;entryDx=0;entryDy=0;" edge="1" parent="1" source="wqVS2Ac2yvy7m2jMSRTk-3" target="wqVS2Ac2yvy7m2jMSRTk-17">
          <mxGeometry relative="1" as="geometry">
            <mxPoint x="300" y="190" as="targetPoint" />
            <Array as="points">
              <mxPoint x="340" y="195" />
              <mxPoint x="340" y="195" />
            </Array>
          </mxGeometry>
        </mxCell>
        <mxCell id="wqVS2Ac2yvy7m2jMSRTk-3" value="Raspberry PI 3B" style="rounded=1;whiteSpace=wrap;html=1;" vertex="1" parent="1">
          <mxGeometry x="360" y="150" width="120" height="60" as="geometry" />
        </mxCell>
        <mxCell id="wqVS2Ac2yvy7m2jMSRTk-13" style="edgeStyle=orthogonalEdgeStyle;rounded=0;orthogonalLoop=1;jettySize=auto;html=1;" edge="1" parent="1" source="wqVS2Ac2yvy7m2jMSRTk-4" target="wqVS2Ac2yvy7m2jMSRTk-2">
          <mxGeometry relative="1" as="geometry" />
        </mxCell>
        <mxCell id="wqVS2Ac2yvy7m2jMSRTk-4" value="Hall sensor" style="rounded=1;whiteSpace=wrap;html=1;" vertex="1" parent="1">
          <mxGeometry x="160" y="280" width="120" height="60" as="geometry" />
        </mxCell>
        <mxCell id="wqVS2Ac2yvy7m2jMSRTk-11" style="edgeStyle=orthogonalEdgeStyle;rounded=0;orthogonalLoop=1;jettySize=auto;html=1;" edge="1" parent="1" source="wqVS2Ac2yvy7m2jMSRTk-5" target="wqVS2Ac2yvy7m2jMSRTk-6">
          <mxGeometry relative="1" as="geometry" />
        </mxCell>
        <mxCell id="wqVS2Ac2yvy7m2jMSRTk-5" value="Gate driver" style="rounded=1;whiteSpace=wrap;html=1;" vertex="1" parent="1">
          <mxGeometry x="360" y="390" width="120" height="60" as="geometry" />
        </mxCell>
        <mxCell id="wqVS2Ac2yvy7m2jMSRTk-10" style="edgeStyle=orthogonalEdgeStyle;rounded=0;orthogonalLoop=1;jettySize=auto;html=1;entryX=1;entryY=0.5;entryDx=0;entryDy=0;" edge="1" parent="1" source="wqVS2Ac2yvy7m2jMSRTk-6" target="wqVS2Ac2yvy7m2jMSRTk-8">
          <mxGeometry relative="1" as="geometry" />
        </mxCell>
        <mxCell id="wqVS2Ac2yvy7m2jMSRTk-6" value="MOSFET" style="rounded=1;whiteSpace=wrap;html=1;" vertex="1" parent="1">
          <mxGeometry x="360" y="500" width="120" height="60" as="geometry" />
        </mxCell>
        <mxCell id="wqVS2Ac2yvy7m2jMSRTk-16" style="edgeStyle=orthogonalEdgeStyle;rounded=0;orthogonalLoop=1;jettySize=auto;html=1;entryX=1;entryY=0.5;entryDx=0;entryDy=0;" edge="1" parent="1" source="wqVS2Ac2yvy7m2jMSRTk-7" target="wqVS2Ac2yvy7m2jMSRTk-3">
          <mxGeometry relative="1" as="geometry" />
        </mxCell>
        <mxCell id="wqVS2Ac2yvy7m2jMSRTk-7" value="Physical controller" style="rounded=1;whiteSpace=wrap;html=1;" vertex="1" parent="1">
          <mxGeometry x="560" y="150" width="120" height="60" as="geometry" />
        </mxCell>
        <mxCell id="wqVS2Ac2yvy7m2jMSRTk-9" style="edgeStyle=orthogonalEdgeStyle;rounded=0;orthogonalLoop=1;jettySize=auto;html=1;" edge="1" parent="1" source="wqVS2Ac2yvy7m2jMSRTk-8" target="wqVS2Ac2yvy7m2jMSRTk-4">
          <mxGeometry relative="1" as="geometry" />
        </mxCell>
        <mxCell id="wqVS2Ac2yvy7m2jMSRTk-8" value="BLDC motor" style="rounded=1;whiteSpace=wrap;html=1;" vertex="1" parent="1">
          <mxGeometry x="160" y="500" width="120" height="60" as="geometry" />
        </mxCell>
        <mxCell id="wqVS2Ac2yvy7m2jMSRTk-18" style="edgeStyle=orthogonalEdgeStyle;rounded=0;orthogonalLoop=1;jettySize=auto;html=1;" edge="1" parent="1" source="wqVS2Ac2yvy7m2jMSRTk-17">
          <mxGeometry relative="1" as="geometry">
            <mxPoint x="360" y="170" as="targetPoint" />
            <Array as="points">
              <mxPoint x="360" y="170" />
            </Array>
          </mxGeometry>
        </mxCell>
        <mxCell id="wqVS2Ac2yvy7m2jMSRTk-17" value="Display interface" style="rounded=1;whiteSpace=wrap;html=1;" vertex="1" parent="1">
          <mxGeometry x="160" y="150" width="120" height="60" as="geometry" />
        </mxCell>
      </root>
    </mxGraphModel>
  </diagram>
</mxfile>
